# Made in Blockbench 4.12.2
mtllib ground.mtl

o cube
v 0.5000001764705881 0.117647 0.5000001764705881
v 0.5000001764705881 0.117647 -0.4999998235294118
v 0.5000001764705881 0 0.5000001764705881
v 0.5000001764705881 0 -0.4999998235294118
v -0.4999998235294118 0.117647 -0.4999998235294118
v -0.4999998235294118 0.117647 0.5000001764705881
v -0.4999998235294118 0 -0.4999998235294118
v -0.4999998235294118 0 0.5000001764705881
vt 0 0.40625
vt 0.265625 0.40625
vt 0.265625 0.375
vt 0 0.375
vt 0 0.4375
vt 0.265625 0.4375
vt 0.265625 0.40625
vt 0 0.40625
vt 0 0.46875
vt 0.265625 0.46875
vt 0.265625 0.4375
vt 0 0.4375
vt 0 0.5
vt 0.265625 0.5
vt 0.265625 0.46875
vt 0 0.46875
vt 0.265625 0.734375
vt 0 0.734375
vt 0 1
vt 0.265625 1
vt 0 0.734375
vt 0.265625 0.734375
vt 0.265625 0.46875
vt 0 0.46875
vn 0 0 -1
vn 1 0 0
vn 0 0 1
vn -1 0 0
vn 0 1 0
vn 0 -1 0
usemtl m_1a403db8-6b61-542b-3b60-b4e17baf230f
f 4/4/1 7/3/1 5/2/1 2/1/1
f 3/8/2 4/7/2 2/6/2 1/5/2
f 8/12/3 3/11/3 1/10/3 6/9/3
f 7/16/4 8/15/4 6/14/4 5/13/4
f 6/20/5 1/19/5 2/18/5 5/17/5
f 7/24/6 4/23/6 3/22/6 8/21/6