# Made in Blockbench 4.12.2
mtllib ground_pine_pool.mtl

o cube
v 0.20588225 0.14705875000000002 -0.14705875000000002
v 0.20588225 0.14705875000000002 -0.17647049999999997
v 0.20588225 0.117647 -0.14705875000000002
v 0.20588225 0.117647 -0.17647049999999997
v 0.20588225 0.14705875000000002 -0.17647049999999997
v 0.20588225 0.14705875000000002 -0.14705875000000002
v 0.20588225 0.117647 -0.17647049999999997
v 0.20588225 0.117647 -0.14705875000000002
vt 0 1
vt 0 1
vt 0 0.99609375
vt 0 0.99609375
vt 0.265625 0.9921875
vt 0.2734375 0.9921875
vt 0.2734375 0.984375
vt 0.265625 0.984375
vt 0 1
vt 0 1
vt 0 0.99609375
vt 0 0.99609375
vt 0.265625 1
vt 0.2734375 1
vt 0.2734375 0.9921875
vt 0.265625 0.9921875
vt 0 0.99609375
vt 0 0.99609375
vt 0 1
vt 0 1
vt 0 1
vt 0 1
vt 0 0.99609375
vt 0 0.99609375
vn 0 0 -1
vn 1 0 0
vn 0 0 1
vn -1 0 0
vn 0 1 0
vn 0 -1 0
usemtl m_d6ab7d8d-d436-ed6f-6670-e43eae62dc2c
f 4/4/1 7/3/1 5/2/1 2/1/1
f 3/8/2 4/7/2 2/6/2 1/5/2
f 8/12/3 3/11/3 1/10/3 6/9/3
f 7/16/4 8/15/4 6/14/4 5/13/4
f 6/20/5 1/19/5 2/18/5 5/17/5
f 7/24/6 4/23/6 3/22/6 8/21/6
o cube
v 0.235294 0.470588 0.29411750000000003
v 0.235294 0.470588 0.2647057500000001
v 0.235294 0.11764700000000003 0.29411750000000003
v 0.235294 0.11764700000000003 0.2647057500000001
v 0.20588225 0.470588 0.2647057500000001
v 0.20588225 0.470588 0.29411750000000003
v 0.20588225 0.11764700000000003 0.2647057500000001
v 0.20588225 0.11764700000000003 0.29411750000000003
vt 0.2734375 0.984375
vt 0.28125 0.984375
vt 0.28125 0.890625
vt 0.2734375 0.890625
vt 0.2890625 0.984375
vt 0.296875 0.984375
vt 0.296875 0.890625
vt 0.2890625 0.890625
vt 0.28125 0.984375
vt 0.2890625 0.984375
vt 0.2890625 0.890625
vt 0.28125 0.890625
vt 0.265625 0.984375
vt 0.2734375 0.984375
vt 0.2734375 0.890625
vt 0.265625 0.890625
vt 0.2734375 1
vt 0.28125 1
vt 0.28125 0.9921875
vt 0.2734375 0.9921875
vt 0.2734375 0.9921875
vt 0.28125 0.9921875
vt 0.28125 0.984375
vt 0.2734375 0.984375
vn 0 0 -1
vn 1 0 0
vn 0 0 1
vn -1 0 0
vn 0 1 0
vn 0 -1 0
usemtl m_d6ab7d8d-d436-ed6f-6670-e43eae62dc2c
f 12/28/7 15/27/7 13/26/7 10/25/7
f 11/32/8 12/31/8 10/30/8 9/29/8
f 16/36/9 11/35/9 9/34/9 14/33/9
f 15/40/10 16/39/10 14/38/10 13/37/10
f 14/44/11 9/43/11 10/42/11 13/41/11
f 15/48/12 12/47/12 11/46/12 16/45/12
o cube
v 0.26470575 0.35294099999999995 0.32352925
v 0.26470575 0.35294099999999995 0.235294
v 0.26470575 0.32352925 0.32352925
v 0.26470575 0.32352925 0.235294
v 0.17647050000000003 0.35294099999999995 0.235294
v 0.17647050000000003 0.35294099999999995 0.32352925
v 0.17647050000000003 0.32352925 0.235294
v 0.17647050000000003 0.32352925 0.32352925
vt 0.390625 0.953125
vt 0.4140625 0.953125
vt 0.4140625 0.9453125
vt 0.390625 0.9453125
vt 0.390625 0.9453125
vt 0.4140625 0.9453125
vt 0.4140625 0.9375
vt 0.390625 0.9375
vt 0.390625 0.9375
vt 0.4140625 0.9375
vt 0.4140625 0.9296875
vt 0.390625 0.9296875
vt 0.390625 0.9296875
vt 0.4140625 0.9296875
vt 0.4140625 0.921875
vt 0.390625 0.921875
vt 0.390625 1
vt 0.4140625 1
vt 0.4140625 0.9765625
vt 0.390625 0.9765625
vt 0.390625 0.9765625
vt 0.4140625 0.9765625
vt 0.4140625 0.953125
vt 0.390625 0.953125
vn 0 0 -1
vn 1 0 0
vn 0 0 1
vn -1 0 0
vn 0 1 0
vn 0 -1 0
usemtl m_d6ab7d8d-d436-ed6f-6670-e43eae62dc2c
f 20/52/13 23/51/13 21/50/13 18/49/13
f 19/56/14 20/55/14 18/54/14 17/53/14
f 24/60/15 19/59/15 17/58/15 22/57/15
f 23/64/16 24/63/16 22/62/16 21/61/16
f 22/68/17 17/67/17 18/66/17 21/65/17
f 23/72/18 20/71/18 19/70/18 24/69/18
o cube
v 0.29411750000000003 0.235294 0.352941
v 0.29411750000000003 0.235294 0.20588225
v 0.29411750000000003 0.20588225 0.352941
v 0.29411750000000003 0.20588225 0.20588225
v 0.14705875000000002 0.235294 0.20588225
v 0.14705875000000002 0.235294 0.352941
v 0.14705875000000002 0.20588225 0.20588225
v 0.14705875000000002 0.20588225 0.352941
vt 0.3046875 0.921875
vt 0.34375 0.921875
vt 0.34375 0.9140625
vt 0.3046875 0.9140625
vt 0.3046875 0.9140625
vt 0.34375 0.9140625
vt 0.34375 0.90625
vt 0.3046875 0.90625
vt 0.3046875 0.90625
vt 0.34375 0.90625
vt 0.34375 0.8984375
vt 0.3046875 0.8984375
vt 0.3046875 0.8984375
vt 0.34375 0.8984375
vt 0.34375 0.890625
vt 0.3046875 0.890625
vt 0.3046875 1
vt 0.34375 1
vt 0.34375 0.9609375
vt 0.3046875 0.9609375
vt 0.3046875 0.9609375
vt 0.34375 0.9609375
vt 0.34375 0.921875
vt 0.3046875 0.921875
vn 0 0 -1
vn 1 0 0
vn 0 0 1
vn -1 0 0
vn 0 1 0
vn 0 -1 0
usemtl m_d6ab7d8d-d436-ed6f-6670-e43eae62dc2c
f 28/76/19 31/75/19 29/74/19 26/73/19
f 27/80/20 28/79/20 26/78/20 25/77/20
f 32/84/21 27/83/21 25/82/21 30/81/21
f 31/88/22 32/87/22 30/86/22 29/85/22
f 30/92/23 25/91/23 26/90/23 29/89/23
f 31/96/24 28/95/24 27/94/24 32/93/24
o cube
v 0.24999987500000004 0.4117645 0.308823375
v 0.24999987500000004 0.4117645 0.24999987499999998
v 0.24999987500000004 0.38235275 0.308823375
v 0.24999987500000004 0.38235275 0.24999987499999998
v 0.191176375 0.4117645 0.24999987499999998
v 0.191176375 0.4117645 0.308823375
v 0.191176375 0.38235275 0.24999987499999998
v 0.191176375 0.38235275 0.308823375
vt 0.421875 0.96875
vt 0.4375 0.96875
vt 0.4375 0.9609375
vt 0.421875 0.9609375
vt 0.421875 0.9609375
vt 0.4375 0.9609375
vt 0.4375 0.953125
vt 0.421875 0.953125
vt 0.421875 0.953125
vt 0.4375 0.953125
vt 0.4375 0.9453125
vt 0.421875 0.9453125
vt 0.421875 0.9453125
vt 0.4375 0.9453125
vt 0.4375 0.9375
vt 0.421875 0.9375
vt 0.421875 1
vt 0.4375 1
vt 0.4375 0.984375
vt 0.421875 0.984375
vt 0.421875 0.984375
vt 0.4375 0.984375
vt 0.4375 0.96875
vt 0.421875 0.96875
vn 0 0 -1
vn 1 0 0
vn 0 0 1
vn -1 0 0
vn 0 1 0
vn 0 -1 0
usemtl m_d6ab7d8d-d436-ed6f-6670-e43eae62dc2c
f 36/100/25 39/99/25 37/98/25 34/97/25
f 35/104/26 36/103/26 34/102/26 33/101/26
f 40/108/27 35/107/27 33/106/27 38/105/27
f 39/112/28 40/111/28 38/110/28 37/109/28
f 38/116/29 33/115/29 34/114/29 37/113/29
f 39/120/30 36/119/30 35/118/30 40/117/30
o cube
v 0.279411625 0.29411750000000003 0.338235125
v 0.279411625 0.29411750000000003 0.22058812499999997
v 0.279411625 0.2647057500000001 0.338235125
v 0.279411625 0.2647057500000001 0.22058812499999997
v 0.161764625 0.29411750000000003 0.22058812499999997
v 0.161764625 0.29411750000000003 0.338235125
v 0.161764625 0.2647057500000001 0.22058812499999997
v 0.161764625 0.2647057500000001 0.338235125
vt 0.3515625 0.9375
vt 0.3828125 0.9375
vt 0.3828125 0.9296875
vt 0.3515625 0.9296875
vt 0.3515625 0.9296875
vt 0.3828125 0.9296875
vt 0.3828125 0.921875
vt 0.3515625 0.921875
vt 0.3515625 0.921875
vt 0.3828125 0.921875
vt 0.3828125 0.9140625
vt 0.3515625 0.9140625
vt 0.3515625 0.9140625
vt 0.3828125 0.9140625
vt 0.3828125 0.90625
vt 0.3515625 0.90625
vt 0.3515625 1
vt 0.3828125 1
vt 0.3828125 0.96875
vt 0.3515625 0.96875
vt 0.3515625 0.96875
vt 0.3828125 0.96875
vt 0.3828125 0.9375
vt 0.3515625 0.9375
vn 0 0 -1
vn 1 0 0
vn 0 0 1
vn -1 0 0
vn 0 1 0
vn 0 -1 0
usemtl m_d6ab7d8d-d436-ed6f-6670-e43eae62dc2c
f 44/124/31 47/123/31 45/122/31 42/121/31
f 43/128/32 44/127/32 42/126/32 41/125/32
f 48/132/33 43/131/33 41/130/33 46/129/33
f 47/136/34 48/135/34 46/134/34 45/133/34
f 46/140/35 41/139/35 42/138/35 45/137/35
f 47/144/36 44/143/36 43/142/36 48/141/36
o cube
v 0.5000001764705881 0.117647 0.5000001764705881
v 0.5000001764705881 0.117647 -0.4999998235294118
v 0.5000001764705881 0 0.5000001764705881
v 0.5000001764705881 0 -0.4999998235294118
v -0.4999998235294118 0.117647 -0.4999998235294118
v -0.4999998235294118 0.117647 0.5000001764705881
v -0.4999998235294118 0 -0.4999998235294118
v -0.4999998235294118 0 0.5000001764705881
vt 0 0.40625
vt 0.265625 0.40625
vt 0.265625 0.375
vt 0 0.375
vt 0 0.4375
vt 0.265625 0.4375
vt 0.265625 0.40625
vt 0 0.40625
vt 0 0.46875
vt 0.265625 0.46875
vt 0.265625 0.4375
vt 0 0.4375
vt 0 0.5
vt 0.265625 0.5
vt 0.265625 0.46875
vt 0 0.46875
vt 0.265625 0.734375
vt 0 0.734375
vt 0 1
vt 0.265625 1
vt 0 0.734375
vt 0.265625 0.734375
vt 0.265625 0.46875
vt 0 0.46875
vn 0 0 -1
vn 1 0 0
vn 0 0 1
vn -1 0 0
vn 0 1 0
vn 0 -1 0
usemtl m_d6ab7d8d-d436-ed6f-6670-e43eae62dc2c
f 52/148/37 55/147/37 53/146/37 50/145/37
f 51/152/38 52/151/38 50/150/38 49/149/38
f 56/156/39 51/155/39 49/154/39 54/153/39
f 55/160/40 56/159/40 54/158/40 53/157/40
f 54/164/41 49/163/41 50/162/41 53/161/41
f 55/168/42 52/167/42 51/166/42 56/165/42