# Made in Blockbench 4.12.2
mtllib floor_3to2.mtl

o cube
v -2.9411764704279086e-8 0.09411759999999998 0.05882348529411766
v -2.9411764704279086e-8 0.09411759999999998 -0.08823526470588236
v -2.9411764704279086e-8 0 0.05882348529411766
v -2.9411764704279086e-8 0 -0.08823526470588236
v -0.11764702941176472 0.09411759999999998 -0.08823526470588236
v -0.11764702941176472 0.09411759999999998 0.05882348529411766
v -0.11764702941176472 0 -0.08823526470588236
v -0.11764702941176472 0 0.05882348529411766
vt 0.3125 0.6875
vt 0.5625 0.6875
vt 0.5625 0.5
vt 0.3125 0.5
vt 0 0.6875
vt 0.3125 0.6875
vt 0.3125 0.5
vt 0 0.5
vt 0.3125 0.6875
vt 0.5625 0.6875
vt 0.5625 0.5
vt 0.3125 0.5
vt 0 0.6875
vt 0.3125 0.6875
vt 0.3125 0.5
vt 0 0.5
vt 0.25 0.6875
vt 0 0.6875
vt 0 1
vt 0.25 1
vt 0.5 1
vt 0.25 1
vt 0.25 0.6875
vt 0.5 0.6875
vn 0 0 -1
vn 1 0 0
vn 0 0 1
vn -1 0 0
vn 0 1 0
vn 0 -1 0
usemtl m_64dd553b-bdc8-2fa2-6706-e26158dbbffb
f 4/4/1 7/3/1 5/2/1 2/1/1
f 3/8/2 4/7/2 2/6/2 1/5/2
f 8/12/3 3/11/3 1/10/3 6/9/3
f 7/16/4 8/15/4 6/14/4 5/13/4
f 6/20/5 1/19/5 2/18/5 5/17/5
f 7/24/6 4/23/6 3/22/6 8/21/6